<svg width="279" height="36" viewBox="0 0 279 36" fill="none" xmlns="http://www.w3.org/2000/svg">
<path d="M24.216 29.192V35H0.552002V0.919992H23.784V6.72799H7.176V14.936H21.528V20.312H7.176V29.192H24.216Z" fill="#FFFCFC"/>
<path d="M36.0041 13.112V35H29.3801V0.919992H34.6601L52.2761 23.384V0.967992H58.9001V35H53.3801L36.0041 13.112Z" fill="#FFFCFC"/>
<path d="M91.4775 6.72799H80.5815V35H74.0055V6.72799H63.1095V0.919992H91.4775V6.72799Z" fill="#FFFCFC"/>
<path d="M119.372 29.192V35H95.7083V0.919992H118.94V6.72799H102.332V14.936H116.684V20.312H102.332V29.192H119.372Z" fill="#FFFCFC"/>
<path d="M124.536 35V0.919992H139.608C141.176 0.919992 142.616 1.23999 143.928 1.87999C145.272 2.51999 146.424 3.38399 147.384 4.47199C148.376 5.55999 149.128 6.77599 149.64 8.11999C150.184 9.46399 150.456 10.84 150.456 12.248C150.456 13.688 150.2 15.08 149.688 16.424C149.208 17.736 148.504 18.888 147.576 19.88C146.648 20.872 145.56 21.64 144.312 22.184L152.088 35H144.792L137.784 23.576H131.16V35H124.536ZM131.16 17.768H139.464C140.296 17.768 141.032 17.528 141.672 17.048C142.312 16.536 142.824 15.864 143.208 15.032C143.592 14.2 143.784 13.272 143.784 12.248C143.784 11.16 143.56 10.216 143.112 9.41599C142.664 8.58399 142.088 7.92799 141.384 7.44799C140.712 6.96799 139.976 6.72799 139.176 6.72799H131.16V17.768Z" fill="#FFFCFC"/>
<path d="M167.99 35V0.919992H174.613V35H167.99Z" fill="#FFFCFC"/>
<path d="M188.348 13.112V35H181.724V0.919992H187.004L204.62 23.384V0.967992H211.244V35H205.724L188.348 13.112Z" fill="#FFFCFC"/>
<path d="M243.821 6.72799H232.925V35H226.349V6.72799H215.453V0.919992H243.821V6.72799Z" fill="#FFFCFC"/>
<path d="M261.799 35.24C259.303 35.24 257.031 34.76 254.983 33.8C252.967 32.84 251.223 31.544 249.751 29.912C248.311 28.248 247.191 26.392 246.391 24.344C245.591 22.264 245.191 20.136 245.191 17.96C245.191 15.688 245.607 13.528 246.439 11.48C247.303 9.39999 248.471 7.55999 249.943 5.95999C251.447 4.32799 253.207 3.04799 255.223 2.11999C257.271 1.15999 259.511 0.679993 261.943 0.679993C264.407 0.679993 266.647 1.17599 268.663 2.16799C270.711 3.15999 272.455 4.48799 273.895 6.15199C275.335 7.81599 276.455 9.67199 277.255 11.72C278.055 13.768 278.455 15.88 278.455 18.056C278.455 20.296 278.039 22.456 277.207 24.536C276.375 26.584 275.207 28.424 273.703 30.056C272.231 31.656 270.471 32.92 268.423 33.848C266.407 34.776 264.199 35.24 261.799 35.24ZM251.911 17.96C251.911 19.432 252.135 20.856 252.583 22.232C253.031 23.608 253.671 24.84 254.503 25.928C255.367 26.984 256.407 27.832 257.623 28.472C258.871 29.08 260.279 29.384 261.847 29.384C263.447 29.384 264.871 29.064 266.119 28.424C267.367 27.752 268.407 26.872 269.239 25.784C270.071 24.664 270.695 23.432 271.111 22.088C271.559 20.712 271.783 19.336 271.783 17.96C271.783 16.488 271.543 15.08 271.063 13.736C270.615 12.36 269.959 11.144 269.095 10.088C268.263 8.99999 267.223 8.15199 265.975 7.54399C264.759 6.90399 263.383 6.58399 261.847 6.58399C260.215 6.58399 258.775 6.91999 257.527 7.59199C256.311 8.23199 255.287 9.09599 254.455 10.184C253.623 11.272 252.983 12.488 252.535 13.832C252.119 15.176 251.911 16.552 251.911 17.96Z" fill="#FFFCFC"/>
</svg>
