<svg width="43" height="43" viewBox="0 0 43 43" fill="none" xmlns="http://www.w3.org/2000/svg">
<path d="M9.62509 43H0.710268V14.2911H9.62509V43ZM5.16288 10.3749C2.31221 10.3749 0 8.01373 0 5.16299C2.04039e-08 3.79368 0.543945 2.48046 1.51217 1.51221C2.4804 0.543957 3.7936 0 5.16288 0C6.53216 0 7.84536 0.543957 8.81359 1.51221C9.78181 2.48046 10.3258 3.79368 10.3258 5.16299C10.3258 8.01373 8.01259 10.3749 5.16288 10.3749ZM42.9904 43H34.0948V29.0247C34.0948 25.694 34.0276 21.4227 29.4598 21.4227C24.8248 21.4227 24.1146 25.0413 24.1146 28.7847V43H15.2093V14.2911H23.7594V18.2073H23.8842C25.0744 15.9516 27.9817 13.5712 32.3191 13.5712C41.3414 13.5712 43 19.5126 43 27.2298V43H42.9904Z" fill="white"/>
</svg>
