<svg width="194" height="50" viewBox="0 0 194 50" fill="none" xmlns="http://www.w3.org/2000/svg">
<g filter="url(#filter0_d_2_125)">
<path d="M65.0741 12.2745H65.9296V16.4879C65.9296 16.9229 65.8158 17.3113 65.5881 17.6531C65.3627 17.9929 65.0442 18.2611 64.6325 18.4579C64.2208 18.6526 63.7378 18.75 63.1836 18.75C62.6293 18.75 62.1463 18.6526 61.7346 18.4579C61.323 18.2611 61.0033 17.9929 60.7756 17.6531C60.5502 17.3113 60.4375 16.9229 60.4375 16.4879V12.2745H61.2931V16.4258C61.2931 16.7365 61.369 17.0131 61.5207 17.2554C61.6725 17.4957 61.8887 17.6853 62.1693 17.824C62.4522 17.9608 62.7903 18.0291 63.1836 18.0291C63.5769 18.0291 63.9149 17.9608 64.1978 17.824C64.4807 17.6853 64.6969 17.4957 64.8464 17.2554C64.9982 17.0131 65.0741 16.7365 65.0741 16.4258V12.2745Z" fill="white"/>
<path d="M78.9724 12.2745V18.6381H78.1444L74.2944 13.6417H74.2254V18.6381H73.3699V12.2745H74.1978L78.0616 17.2834H78.1306V12.2745H78.9724Z" fill="white"/>
<path d="M87.2716 12.2745V18.6381H86.4161V12.2745H87.2716Z" fill="white"/>
<path d="M100.68 15.4563C100.68 16.1275 100.546 16.7075 100.276 17.1964C100.007 17.6853 99.6382 18.0623 99.169 18.3274C98.6999 18.5926 98.164 18.7251 97.5614 18.7251C96.9588 18.7251 96.423 18.5926 95.9538 18.3274C95.4846 18.0623 95.1155 17.6853 94.8464 17.1964C94.5773 16.7075 94.4428 16.1275 94.4428 15.4563C94.4428 14.7852 94.5773 14.2051 94.8464 13.7163C95.1155 13.2274 95.4846 12.8504 95.9538 12.5852C96.423 12.3201 96.9588 12.1875 97.5614 12.1875C98.164 12.1875 98.6999 12.3201 99.169 12.5852C99.6382 12.8504 100.007 13.2274 100.276 13.7163C100.546 14.2051 100.68 14.7852 100.68 15.4563ZM99.8521 15.4563C99.8521 14.9053 99.7498 14.4403 99.5451 14.0612C99.3427 13.6821 99.0678 13.3952 98.7206 13.2005C98.3756 13.0057 97.9892 12.9084 97.5614 12.9084C97.1336 12.9084 96.7461 13.0057 96.3988 13.2005C96.0538 13.3952 95.779 13.6821 95.5743 14.0612C95.3719 14.4403 95.2707 14.9053 95.2707 15.4563C95.2707 16.0073 95.3719 16.4724 95.5743 16.8515C95.779 17.2306 96.0538 17.5175 96.3988 17.7122C96.7461 17.9069 97.1336 18.0043 97.5614 18.0043C97.9892 18.0043 98.3756 17.9069 98.7206 17.7122C99.0678 17.5175 99.3427 17.2306 99.5451 16.8515C99.7498 16.4724 99.8521 16.0073 99.8521 15.4563Z" fill="white"/>
<path d="M113.453 12.2745V18.6381H112.625L108.775 13.6417H108.706V18.6381H107.85V12.2745H108.678L112.542 17.2834H112.611V12.2745H113.453Z" fill="white"/>
<path d="M129.65 18.6381H128.753L131.348 12.2745H132.231L134.825 18.6381H133.928L131.817 13.2812H131.762L129.65 18.6381ZM129.981 16.1523H133.597V16.8359H129.981V16.1523Z" fill="white"/>
<path d="M141.657 18.6381V12.2745H142.513V17.9545H145.797V18.6381H141.657Z" fill="white"/>
<path d="M152.853 18.6381V12.2745H153.709V17.9545H156.993V18.6381H152.853Z" fill="white"/>
<path d="M164.905 12.2745V18.6381H164.05V12.2745H164.905Z" fill="white"/>
<path d="M172.352 18.6381V12.2745H176.616V12.9581H173.208V15.1083H176.396V15.7919H173.208V17.9545H176.672V18.6381H172.352Z" fill="white"/>
<path d="M186.07 18.6381H183.89V12.2745H186.167C186.852 12.2745 187.439 12.4019 187.926 12.6567C188.414 12.9094 188.788 13.273 189.048 13.7473C189.308 14.2196 189.438 14.7852 189.438 15.4439C189.438 16.1068 189.306 16.6775 189.044 17.156C188.782 17.6324 188.4 17.9991 187.899 18.2559C187.397 18.5107 186.788 18.6381 186.07 18.6381ZM184.746 17.9545H186.015C186.599 17.9545 187.084 17.853 187.468 17.65C187.852 17.447 188.138 17.1581 188.327 16.7831C188.515 16.4082 188.61 15.9618 188.61 15.4439C188.61 14.9302 188.516 14.4879 188.33 14.1171C188.144 13.7442 187.866 13.4584 187.495 13.2595C187.125 13.0586 186.664 12.9581 186.112 12.9581H184.746V17.9545Z" fill="white"/>
</g>
<g filter="url(#filter1_d_2_125)">
<path d="M69.1402 30.5426C69.1402 31.6165 68.9525 32.5445 68.577 33.3267C68.2016 34.1089 67.6865 34.7121 67.0319 35.1364C66.3773 35.5606 65.6296 35.7727 64.7889 35.7727C63.9481 35.7727 63.2004 35.5606 62.5458 35.1364C61.8912 34.7121 61.3761 34.1089 61.0007 33.3267C60.6252 32.5445 60.4375 31.6165 60.4375 30.5426C60.4375 29.4688 60.6252 28.5407 61.0007 27.7585C61.3761 26.9763 61.8912 26.3731 62.5458 25.9489C63.2004 25.5246 63.9481 25.3125 64.7889 25.3125C65.6296 25.3125 66.3773 25.5246 67.0319 25.9489C67.6865 26.3731 68.2016 26.9763 68.577 27.7585C68.9525 28.5407 69.1402 29.4688 69.1402 30.5426ZM67.985 30.5426C67.985 29.661 67.8422 28.9169 67.5566 28.3104C67.2742 27.7038 66.8907 27.2448 66.4062 26.9332C65.9248 26.6217 65.3857 26.4659 64.7889 26.4659C64.192 26.4659 63.6513 26.6217 63.1667 26.9332C62.6854 27.2448 62.3019 27.7038 62.0163 28.3104C61.7339 28.9169 61.5927 29.661 61.5927 30.5426C61.5927 31.4242 61.7339 32.1683 62.0163 32.7749C62.3019 33.3814 62.6854 33.8404 63.1667 34.152C63.6513 34.4635 64.192 34.6193 64.7889 34.6193C65.3857 34.6193 65.9248 34.4635 66.4062 34.152C66.8907 33.8404 67.2742 33.3814 67.5566 32.7749C67.8422 32.1683 67.985 31.4242 67.985 30.5426Z" fill="white"/>
<path d="M73.8583 35.6335V25.4517H77.1892C77.9594 25.4517 78.5916 25.5876 79.0857 25.8594C79.5799 26.1278 79.9457 26.4974 80.1832 26.968C80.4207 27.4387 80.5394 27.974 80.5394 28.5739C80.5394 29.1738 80.4207 29.7057 80.1832 30.1697C79.9457 30.6338 79.5815 30.9983 79.0905 31.2635C78.5996 31.5253 77.9722 31.6563 77.2085 31.6563H74.513V30.5426H77.17C77.6963 30.5426 78.1198 30.4631 78.4407 30.304C78.7648 30.1449 78.9991 29.9195 79.1435 29.6278C79.2911 29.3329 79.3649 28.9815 79.3649 28.5739C79.3649 28.1662 79.2911 27.8099 79.1435 27.505C78.9959 27.2 78.76 26.9647 78.4359 26.799C78.1118 26.63 77.6834 26.5455 77.1507 26.5455H75.0521V35.6335H73.8583ZM78.4985 31.0597L80.9245 35.6335H79.5382L77.1507 31.0597H78.4985Z" fill="white"/>
<path d="M91.9783 28.6335C91.8724 28.2988 91.7328 27.9988 91.5595 27.7337C91.3895 27.4652 91.1857 27.2365 90.9482 27.0476C90.714 26.8587 90.4476 26.7145 90.1492 26.6151C89.8508 26.5156 89.5234 26.4659 89.1672 26.4659C88.5832 26.4659 88.0521 26.6217 87.574 26.9332C87.0959 27.2448 86.7156 27.7038 86.4332 28.3104C86.1508 28.9169 86.0096 29.661 86.0096 30.5426C86.0096 31.4242 86.1524 32.1683 86.438 32.7749C86.7236 33.3814 87.1103 33.8404 87.5981 34.152C88.0858 34.4635 88.6346 34.6193 89.2443 34.6193C89.809 34.6193 90.3064 34.495 90.7364 34.2464C91.1696 33.9946 91.5066 33.6399 91.7473 33.1825C91.9911 32.7218 92.1131 32.1799 92.1131 31.5568L92.4789 31.6364H89.5138V30.5426H93.2683V31.6364C93.2683 32.4749 93.095 33.2041 92.7485 33.8239C92.4051 34.4437 91.9302 34.9242 91.3237 35.2656C90.7204 35.6037 90.0273 35.7727 89.2443 35.7727C88.3714 35.7727 87.6045 35.5606 86.9434 35.1364C86.2856 34.7121 85.7722 34.1089 85.4031 33.3267C85.0373 32.5445 84.8544 31.6165 84.8544 30.5426C84.8544 29.7372 84.9587 29.013 85.1673 28.37C85.3791 27.7237 85.6775 27.1735 86.0626 26.7195C86.4477 26.2654 86.9033 25.9174 87.4296 25.6754C87.9559 25.4335 88.5351 25.3125 89.1672 25.3125C89.6871 25.3125 90.1717 25.3937 90.6209 25.5561C91.0734 25.7152 91.4761 25.9422 91.8291 26.2372C92.1853 26.5289 92.4821 26.8786 92.7196 27.2862C92.957 27.6906 93.1207 28.1397 93.2105 28.6335H91.9783Z" fill="white"/>
<path d="M98.1236 35.6335H96.8721L100.492 25.4517H101.724L105.344 35.6335H104.092L101.146 27.0625H101.069L98.1236 35.6335ZM98.5857 31.6563H103.63V32.75H98.5857V31.6563Z" fill="white"/>
<path d="M117.407 25.4517V35.6335H116.252L110.88 27.6392H110.784V35.6335H109.59V25.4517H110.745L116.136 33.4659H116.233V25.4517H117.407Z" fill="white"/>
<path d="M123.701 25.4517V35.6335H122.507V25.4517H123.701Z" fill="white"/>
<path d="M134.196 27.9972C134.138 27.4934 133.904 27.1023 133.493 26.8239C133.083 26.5455 132.579 26.4062 131.982 26.4062C131.545 26.4062 131.164 26.4792 130.836 26.625C130.512 26.7708 130.259 26.9714 130.076 27.2266C129.896 27.4818 129.806 27.7718 129.806 28.0966C129.806 28.3684 129.869 28.602 129.994 28.7976C130.122 28.9898 130.286 29.1506 130.485 29.2798C130.684 29.4058 130.892 29.5102 131.111 29.593C131.329 29.6726 131.529 29.7372 131.712 29.7869L132.714 30.0653C132.97 30.1349 133.256 30.2311 133.57 30.3537C133.888 30.4763 134.191 30.6437 134.48 30.8558C134.772 31.0646 135.013 31.3331 135.202 31.6612C135.391 31.9893 135.486 32.392 135.486 32.8693C135.486 33.4195 135.346 33.9167 135.067 34.3608C134.791 34.8049 134.387 35.1579 133.854 35.4197C133.325 35.6816 132.681 35.8125 131.924 35.8125C131.218 35.8125 130.607 35.6948 130.09 35.4595C129.577 35.2242 129.172 34.8961 128.877 34.4751C128.585 34.0542 128.42 33.5653 128.381 33.0085H129.614C129.646 33.393 129.771 33.7112 129.989 33.9631C130.211 34.2116 130.49 34.3973 130.827 34.5199C131.167 34.6392 131.533 34.6989 131.924 34.6989C132.38 34.6989 132.789 34.6226 133.152 34.4702C133.514 34.3144 133.801 34.099 134.013 33.8239C134.225 33.5455 134.331 33.2206 134.331 32.8494C134.331 32.5114 134.239 32.2363 134.056 32.0241C133.874 31.812 133.633 31.6397 133.334 31.5071C133.036 31.3745 132.714 31.2585 132.367 31.1591L131.154 30.8011C130.384 30.5724 129.774 30.246 129.325 29.8217C128.876 29.3975 128.651 28.8423 128.651 28.1562C128.651 27.5862 128.8 27.089 129.099 26.6648C129.4 26.2372 129.805 25.9058 130.312 25.6705C130.822 25.4318 131.391 25.3125 132.02 25.3125C132.656 25.3125 133.221 25.4302 133.715 25.6655C134.209 25.8975 134.6 26.2157 134.889 26.62C135.181 27.0244 135.335 27.4834 135.351 27.9972H134.196Z" fill="white"/>
<path d="M140.564 35.6335H139.312L142.932 25.4517H144.164L147.784 35.6335H146.533L143.587 27.0625H143.51L140.564 35.6335ZM141.026 31.6563H146.071V32.75H141.026V31.6563Z" fill="white"/>
<path d="M150.34 26.5455V25.4517H157.733V26.5455H154.633V35.6335H153.44V26.5455H150.34Z" fill="white"/>
<path d="M163.48 25.4517V35.6335H162.287V25.4517H163.48Z" fill="white"/>
<path d="M176.902 30.5426C176.902 31.6165 176.715 32.5445 176.339 33.3267C175.964 34.1089 175.449 34.7121 174.794 35.1364C174.139 35.5606 173.392 35.7727 172.551 35.7727C171.71 35.7727 170.963 35.5606 170.308 35.1364C169.653 34.7121 169.138 34.1089 168.763 33.3267C168.387 32.5445 168.2 31.6165 168.2 30.5426C168.2 29.4688 168.387 28.5407 168.763 27.7585C169.138 26.9763 169.653 26.3731 170.308 25.9489C170.963 25.5246 171.71 25.3125 172.551 25.3125C173.392 25.3125 174.139 25.5246 174.794 25.9489C175.449 26.3731 175.964 26.9763 176.339 27.7585C176.715 28.5407 176.902 29.4688 176.902 30.5426ZM175.747 30.5426C175.747 29.661 175.604 28.9169 175.319 28.3104C175.036 27.7038 174.653 27.2448 174.168 26.9332C173.687 26.6217 173.148 26.4659 172.551 26.4659C171.954 26.4659 171.413 26.6217 170.929 26.9332C170.448 27.2448 170.064 27.7038 169.778 28.3104C169.496 28.9169 169.355 29.661 169.355 30.5426C169.355 31.4242 169.496 32.1683 169.778 32.7749C170.064 33.3814 170.448 33.8404 170.929 34.152C171.413 34.4635 171.954 34.6193 172.551 34.6193C173.148 34.6193 173.687 34.4635 174.168 34.152C174.653 33.8404 175.036 33.3814 175.319 32.7749C175.604 32.1683 175.747 31.4242 175.747 30.5426Z" fill="white"/>
<path d="M189.438 25.4517V35.6335H188.282L182.91 27.6392H182.814V35.6335H181.62V25.4517H182.776L188.167 33.4659H188.263V25.4517H189.438Z" fill="white"/>
</g>
<g filter="url(#filter2_d_2_125)">
<mask id="mask0_2_125" style="mask-type:alpha" maskUnits="userSpaceOnUse" x="4" y="3" width="46" height="42">
<path fill-rule="evenodd" clip-rule="evenodd" d="M32.0795 19.0426L26.6866 3L21.2937 19.0426H4L40.7451 44.8204L35.4125 28.9574L49.5314 19.0426H32.0795ZM25.9075 35.6323L17.6615 29.8475L12.5678 45L25.9075 35.6323Z" fill="white"/>
</mask>
<g mask="url(#mask0_2_125)">
<path d="M-2.03422 15.2921L56.1277 -11.0377L50.5438 51.6497L-2.03422 15.2921Z" fill="#D9D9D9"/>
</g>
</g>
<defs>
<filter id="filter0_d_2_125" x="56.4375" y="9.1875" width="137" height="14.5625" filterUnits="userSpaceOnUse" color-interpolation-filters="sRGB">
<feFlood flood-opacity="0" result="BackgroundImageFix"/>
<feColorMatrix in="SourceAlpha" type="matrix" values="0 0 0 0 0 0 0 0 0 0 0 0 0 0 0 0 0 0 127 0" result="hardAlpha"/>
<feOffset dy="1"/>
<feGaussianBlur stdDeviation="2"/>
<feComposite in2="hardAlpha" operator="out"/>
<feColorMatrix type="matrix" values="0 0 0 0 0 0 0 0 0 0 0 0 0 0 0 0 0 0 0.5 0"/>
<feBlend mode="normal" in2="BackgroundImageFix" result="effect1_dropShadow_2_125"/>
<feBlend mode="normal" in="SourceGraphic" in2="effect1_dropShadow_2_125" result="shape"/>
</filter>
<filter id="filter1_d_2_125" x="56.4375" y="22.3125" width="137" height="18.5" filterUnits="userSpaceOnUse" color-interpolation-filters="sRGB">
<feFlood flood-opacity="0" result="BackgroundImageFix"/>
<feColorMatrix in="SourceAlpha" type="matrix" values="0 0 0 0 0 0 0 0 0 0 0 0 0 0 0 0 0 0 127 0" result="hardAlpha"/>
<feOffset dy="1"/>
<feGaussianBlur stdDeviation="2"/>
<feComposite in2="hardAlpha" operator="out"/>
<feColorMatrix type="matrix" values="0 0 0 0 0 0 0 0 0 0 0 0 0 0 0 0 0 0 0.5 0"/>
<feBlend mode="normal" in2="BackgroundImageFix" result="effect1_dropShadow_2_125"/>
<feBlend mode="normal" in="SourceGraphic" in2="effect1_dropShadow_2_125" result="shape"/>
</filter>
<filter id="filter2_d_2_125" x="0" y="0" width="53.5314" height="50" filterUnits="userSpaceOnUse" color-interpolation-filters="sRGB">
<feFlood flood-opacity="0" result="BackgroundImageFix"/>
<feColorMatrix in="SourceAlpha" type="matrix" values="0 0 0 0 0 0 0 0 0 0 0 0 0 0 0 0 0 0 127 0" result="hardAlpha"/>
<feOffset dy="1"/>
<feGaussianBlur stdDeviation="2"/>
<feComposite in2="hardAlpha" operator="out"/>
<feColorMatrix type="matrix" values="0 0 0 0 0 0 0 0 0 0 0 0 0 0 0 0 0 0 0.5 0"/>
<feBlend mode="normal" in2="BackgroundImageFix" result="effect1_dropShadow_2_125"/>
<feBlend mode="normal" in="SourceGraphic" in2="effect1_dropShadow_2_125" result="shape"/>
</filter>
</defs>
</svg>
