<svg width="488" height="47" viewBox="0 0 488 47" fill="none" xmlns="http://www.w3.org/2000/svg">
<path d="M38.72 8.30399H24.192V46H15.424V8.30399H0.895996V0.55999H38.72V8.30399Z" fill="#FFFCFC"/>
<path d="M82.569 0.55999V46H73.801V26.608H53.193V46H44.361V0.55999H53.193V18.928H73.801V0.55999H82.569Z" fill="#FFFCFC"/>
<path d="M123.6 38.256V46H92.0485V0.55999H123.024V8.30399H100.88V19.248H120.016V26.416H100.88V38.256H123.6Z" fill="#FFFCFC"/>
<path d="M165.125 46.32C161.498 46.32 158.405 45.7227 155.845 44.528C153.328 43.2907 151.28 41.6053 149.701 39.472C148.165 37.3387 147.034 34.928 146.309 32.24C145.584 29.5093 145.221 26.672 145.221 23.728V0.55999H154.053V23.728C154.053 25.6053 154.224 27.44 154.565 29.232C154.949 30.9813 155.568 32.56 156.421 33.968C157.274 35.376 158.405 36.4853 159.813 37.296C161.221 38.1067 162.97 38.512 165.061 38.512C167.194 38.512 168.965 38.1067 170.373 37.296C171.824 36.4427 172.954 35.312 173.765 33.904C174.618 32.496 175.237 30.9173 175.621 29.168C176.005 27.376 176.197 25.5627 176.197 23.728V0.55999H184.965V23.728C184.965 26.8427 184.581 29.7653 183.813 32.496C183.088 35.2267 181.914 37.6373 180.293 39.728C178.714 41.776 176.666 43.3973 174.149 44.592C171.632 45.744 168.624 46.32 165.125 46.32Z" fill="#FFFCFC"/>
<path d="M202.693 16.816V46H193.861V0.55999H200.901L224.389 30.512V0.623989H233.221V46H225.861L202.693 16.816Z" fill="#FFFCFC"/>
<path d="M242.673 46V0.623989H251.505V22.192L270.577 0.55999H280.306L262.897 20.72L281.393 46H271.409L257.266 26.416L251.505 32.432V46H242.673Z" fill="#FFFCFC"/>
<path d="M294.318 16.816V46H285.486V0.55999H292.526L316.014 30.512V0.623989H324.846V46H317.486L294.318 16.816Z" fill="#FFFCFC"/>
<path d="M353.69 46.32C350.362 46.32 347.333 45.68 344.603 44.4C341.915 43.12 339.589 41.392 337.626 39.216C335.706 36.9973 334.213 34.5227 333.146 31.792C332.08 29.0187 331.547 26.1813 331.547 23.28C331.547 20.2507 332.101 17.3707 333.211 14.64C334.363 11.8667 335.92 9.41333 337.883 7.27999C339.888 5.10399 342.234 3.39732 344.922 2.15999C347.653 0.87999 350.64 0.23999 353.883 0.23999C357.168 0.23999 360.155 0.901324 362.842 2.22399C365.573 3.54666 367.898 5.31732 369.818 7.53599C371.738 9.75466 373.232 12.2293 374.298 14.96C375.365 17.6907 375.898 20.5067 375.898 23.408C375.898 26.3947 375.344 29.2747 374.234 32.048C373.125 34.7787 371.568 37.232 369.562 39.408C367.6 41.5413 365.253 43.2267 362.522 44.464C359.835 45.7013 356.891 46.32 353.69 46.32ZM340.507 23.28C340.507 25.2427 340.805 27.1413 341.402 28.976C342 30.8107 342.853 32.4533 343.962 33.904C345.115 35.312 346.501 36.4427 348.122 37.296C349.786 38.1067 351.664 38.512 353.754 38.512C355.888 38.512 357.786 38.0853 359.451 37.232C361.115 36.336 362.501 35.1627 363.611 33.712C364.72 32.2187 365.552 30.576 366.107 28.784C366.704 26.9493 367.003 25.1147 367.003 23.28C367.003 21.3173 366.682 19.44 366.043 17.648C365.445 15.8133 364.57 14.192 363.418 12.784C362.309 11.3333 360.922 10.2027 359.258 9.39199C357.637 8.53866 355.802 8.11199 353.754 8.11199C351.578 8.11199 349.659 8.55999 347.995 9.45599C346.373 10.3093 345.008 11.4613 343.898 12.912C342.789 14.3627 341.936 15.984 341.339 17.776C340.784 19.568 340.507 21.4027 340.507 23.28Z" fill="#FFFCFC"/>
<path d="M396.413 0.687992H404.605L409.789 15.728L415.037 0.687992H423.165L415.357 21.36L421.117 35.824L433.981 0.55999H443.581L425.405 46H417.789L409.789 26.928L401.853 46H394.237L376.125 0.55999H385.597L398.525 35.824L404.157 21.36L396.413 0.687992Z" fill="#FFFCFC"/>
<path d="M457.068 16.816V46H448.236V0.55999H455.276L478.764 30.512V0.623989H487.596V46H480.236L457.068 16.816Z" fill="#FFFCFC"/>
</svg>
