<svg width="54" height="44" viewBox="0 0 54 44" fill="none" xmlns="http://www.w3.org/2000/svg">
<path d="M48.4494 10.9656C48.4837 11.4468 48.4837 11.9281 48.4837 12.4094C48.4837 27.0874 37.3479 44 16.995 44C10.7246 44 4.89978 42.178 0 39.0157C0.890898 39.1187 1.74741 39.1531 2.67259 39.1531C7.84638 39.1531 12.6092 37.4001 16.4125 34.4094C11.547 34.3063 7.46954 31.1094 6.06469 26.7094C6.75003 26.8124 7.43526 26.8812 8.15488 26.8812C9.1485 26.8812 10.1422 26.7437 11.0673 26.5031C5.99624 25.4718 2.19281 21.0031 2.19281 15.6062V15.4688C3.66611 16.2938 5.37946 16.8094 7.19532 16.8781C4.21434 14.8843 2.26136 11.4812 2.26136 7.63117C2.26136 5.56871 2.80949 3.67809 3.76894 2.02807C9.21695 8.76557 17.4061 13.1655 26.5888 13.6468C26.4175 12.8218 26.3147 11.9625 26.3147 11.1031C26.3147 4.98432 31.2487 0 37.382 0C40.5685 0 43.4467 1.34062 45.4683 3.50625C47.9695 3.02502 50.368 2.09685 52.4924 0.825006C51.67 3.40319 49.9226 5.56882 47.6269 6.94372C49.8541 6.70321 52.0128 6.08433 54 5.22504C52.4926 7.42495 50.608 9.38424 48.4494 10.9656Z" fill="white"/>
</svg>
